:SAMPLES-PER-SECOND 30
:FULLY-SPECIFIED
:DEGREES
98
root  -0.250324 42.8268 -8.54181 -4.07247 -63.3215 -1.03268
RightUpLeg  -2.12421 -14.078 -4.96984
RightLeg  19.8226 -1.85148 -0.943941
RightFoot  9.73628 -3.14157 17.1712
RightToes  -5.82094e-011 -1.98785e-016 -5.10186e-018
Spine  23.2577 -0.842552 -2.41118
Spine1  1.83191 -1.31416 -1.09908
HEad  -5.01267 42.2593 -20.074
LeftShoulder1  2.01187 -3.85588 -20.939
LeftArm  -14.4666 21.3683 -49.0846
LeftForeArm  -148.824 -72.1151 -155.241
LeftHand  -0.523268 -2.94566 7.52178
RightShoulder  3.44574 7.25706 25.9801
RightArm  6.18711 -21.1086 41.2956
RightForeArm  65.9414 76.9729 43.8359
RightHand  -1.48846 8.52914 -12.7199
LeftUpLeg  -13.8409 11.5645 3.31598
LeftLeg  35.258 -8.93414 -6.36163
LeftFoot  16.8246 2.93382 -12.0822
LeftToes  -8.4584e-011 5.90861e-011 8.40072e-012
99
root  0.0119692 42.591 -9.98494 -1.28363 -63.6184 -5.42493
RightUpLeg  0.266622 -12.2551 -5.96178
RightLeg  19.9447 -8.0969 -3.4414
RightFoot  9.46379 -2.47597 13.7875
RightToes  -5.82094e-011 -1.98785e-016 -5.10186e-018
Spine  23.3619 -1.89946 -0.786318
Spine1  2.13311 -2.28691 0.556149
HEad  -3.56301 44.5592 -20.639
LeftShoulder1  2.20425 -4.42293 -21.4363
LeftArm  -13.6736 20.8869 -48.1446
LeftForeArm  -149.416 -72.5013 -154.601
LeftHand  -0.456391 -3.30842 6.33634
RightShoulder  3.40126 7.00257 26.3504
RightArm  2.67416 -20.5932 40.9989
RightForeArm  50.9596 72.066 29.6418
RightHand  -1.72773 8.06969 -15.1761
LeftUpLeg  -12.888 10.5636 4.12092
LeftLeg  37.471 -8.89047 -6.87753
LeftFoot  15.626 2.95343 -12.6801
LeftToes  -8.4584e-011 5.90861e-011 8.40072e-012
100
root  0.17916 41.9885 -11.4048 2.82473 -64.6744 -9.42966
RightUpLeg  1.08408 -11.257 -7.26482
RightLeg  19.7996 -12.2154 -5.0408
RightFoot  8.07616 -2.15062 12.8378
RightToes  -5.82094e-011 -1.98785e-016 -5.10186e-018
Spine  21.5589 -2.44129 1.02778
Spine1  2.67768 -2.4531 0.96757
HEad  -2.25788 45.6439 -20.223
LeftShoulder1  2.4978 -5.36324 -21.8398
LeftArm  -13.6003 20.195 -47.537
LeftForeArm  -150.451 -72.664 -154.249
LeftHand  -0.472207 -3.33626 6.53326
RightShoulder  3.30647 6.44157 27.2607
RightArm  -0.523586 -20.5395 40.1007
RightForeArm  40.2125 67.1472 22.8935
RightHand  -1.90956 7.09743 -17.9268
LeftUpLeg  -13.0968 10.3781 4.62689
LeftLeg  37.9476 -8.28874 -6.50995
LeftFoot  14.6262 2.71907 -12.161
LeftToes  -8.4584e-011 5.90861e-011 8.40072e-012
101
root  0.296968 41.0333 -12.867 5.89759 -66.78 -11.8945
RightUpLeg  1.08934 -10.5572 -9.67169
RightLeg  20.4725 -12.9216 -5.48159
RightFoot  6.50062 -1.75645 11.4337
RightToes  -5.82094e-011 -1.98785e-016 -5.10186e-018
Spine  19.5774 -2.38999 1.38189
Spine1  3.14829 -2.32796 0.720791
HEad  -2.57789 47.2891 -20.0852
LeftShoulder1  2.39827 -5.02452 -21.7954
LeftArm  -14.3502 19.4532 -47.7923
LeftForeArm  -149.348 -72.3749 -154.799
LeftHand  -0.55819 -3.76367 7.32251
RightShoulder  3.33881 6.23508 28.3295
RightArm  -3.32312 -20.3586 38.9956
RightForeArm  30.8188 61.7674 18.2026
RightHand  -2.1325 6.72367 -20.5368
LeftUpLeg  -12.8824 11.7741 4.60024
LeftLeg  36.6535 -7.05282 -5.28079
LeftFoot  11.1862 1.96757 -10.1502
LeftToes  -8.4584e-011 5.90861e-011 8.40072e-012
102
root  0.475498 39.8397 -14.4344 7.86796 -70.1226 -13.565
RightUpLeg  0.958204 -8.32824 -12.5989
RightLeg  21.9647 -14.0977 -6.47152
RightFoot  6.1267 -1.91039 12.4775
RightToes  -5.82094e-011 -1.98785e-016 -5.10186e-018
Spine  19.2262 -1.55059 0.0230061
Spine1  2.50869 -1.77911 -0.0239026
HEad  -4.90628 49.2107 -21.0855
LeftShoulder1  2.29617 -4.43886 -22.6101
LeftArm  -16.0016 19.2353 -47.4104
LeftForeArm  -147.409 -71.1446 -156.706
LeftHand  -0.733858 -4.52887 8.89081
RightShoulder  3.46801 6.55819 28.5124
RightArm  -5.00117 -20.6599 37.3736
RightForeArm  23.8302 57.5117 15.651
RightHand  -2.30314 6.546 -22.4567
LeftUpLeg  -12.3792 13.3152 4.61671
LeftLeg  36.251 -2.38136 -1.40479
LeftFoot  1.27446 0.807515 -7.06149
LeftToes  -8.4584e-011 5.90861e-011 8.40072e-012
103
root  0.768329 38.1668 -16.0301 10.6863 -73.0283 -16.7916
RightUpLeg  -0.679591 -6.04052 -14.8173
RightLeg  27.995 -9.89094 -5.52133
RightFoot  1.4873 -2.16766 20.2752
RightToes  -5.82094e-011 -1.98785e-016 -5.10186e-018
Spine  19.7274 -0.729969 -0.466646
Spine1  2.18352 -1.31386 1.02797
HEad  -9.93737 50.4174 -23.3709
LeftShoulder1  2.20825 -4.09564 -22.7877
LeftArm  -19.0128 18.7644 -47.082
LeftForeArm  -145.529 -69.1349 -159.285
LeftHand  -0.872839 -3.59565 11.5178
RightShoulder  3.60361 6.78011 29.1079
RightArm  -5.07105 -20.3636 35.1513
RightForeArm  19.4106 54.8101 14.4059
RightHand  -2.60652 6.21968 -25.8788
LeftUpLeg  -14.1243 11.4204 6.57216
LeftLeg  41.3102 2.4554 2.66054
LeftFoot  -13.5443 -0.0712547 -5.95306
LeftToes  -8.4584e-011 5.90861e-011 8.40072e-012
104
root  1.17689 36.8301 -17.9211 3.24375 -74.4563 -9.91185
RightUpLeg  -3.17222 -8.23359 -18.1852
RightLeg  34.9792 4.40195 2.85595
RightFoot  -14.7366 0.499309 23.7356
RightToes  -5.82094e-011 -1.98785e-016 -5.10186e-018
Spine  22.2872 1.00379 -5.83328
Spine1  1.61487 -1.66956 5.66569
HEad  -16.3654 50.2001 -25.8062
LeftShoulder1  2.00774 -3.30954 -23.197
LeftArm  -20.9959 16.3261 -44.7573
LeftForeArm  -144.849 -67.1081 -161.362
LeftHand  -0.978087 -2.79684 14.054
RightShoulder  3.467 6.27317 29.5353
RightArm  -5.11159 -19.735 35.3732
RightForeArm  20.1366 52.4136 13.0126
RightHand  -3.25783 7.17141 -29.7616
LeftUpLeg  -17.3545 10.6476 7.31385
LeftLeg  47.2 2.03569 2.75791
LeftFoot  -17.243 -0.312157 -8.14684
LeftToes  -8.4584e-011 5.90861e-011 8.40072e-012
